HIERARCHY
ROOT root
{
  OFFSET 0 93.2929 0
  CHANNELS 6 Xposition Yposition Zposition Zrotation Xrotation Yrotation
  JOINT torso_1
  {
    OFFSET 0 5.07867 -1.15138
    CHANNELS 6 Xposition Yposition Zposition Zrotation Xrotation Yrotation
    JOINT torso_2
    {
      OFFSET 0 5.61661 1.07143
      CHANNELS 6 Xposition Yposition Zposition Zrotation Xrotation Yrotation
      JOINT torso_3
      {
        OFFSET -1.02604e-17 5.98978 0.11501
        CHANNELS 6 Xposition Yposition Zposition Zrotation Xrotation Yrotation
        JOINT torso_4
        {
          OFFSET -1.10457e-17 6.50583 -0.443523
          CHANNELS 6 Xposition Yposition Zposition Zrotation Xrotation Yrotation
          JOINT torso_5
          {
            OFFSET -1.97295e-17 7.60548 -1.50593
            CHANNELS 6 Xposition Yposition Zposition Zrotation Xrotation Yrotation
            JOINT torso_6
            {
              OFFSET -2.53307e-17 9.49737 -0.914492
              CHANNELS 6 Xposition Yposition Zposition Zrotation Xrotation Yrotation
              JOINT torso_7
              {
                OFFSET -2.90401e-17 10.5513 1.57691
                CHANNELS 6 Xposition Yposition Zposition Zrotation Xrotation Yrotation
                JOINT neck_1
                {
                  OFFSET -1.29193e-17 4.78644 0.715339
                  CHANNELS 6 Xposition Yposition Zposition Zrotation Xrotation Yrotation
                  JOINT neck_2
                  {
                    OFFSET -1.8116e-17 4.82109 0.421791
                    CHANNELS 6 Xposition Yposition Zposition Zrotation Xrotation Yrotation
                    JOINT head
                    {
                      OFFSET -2.00958e-17 4.83041 0.765062
                      CHANNELS 6 Xposition Yposition Zposition Zrotation Xrotation Yrotation
                      End Site
                      {
                        OFFSET 0 0.1 0
                      }
                    }
                  }
                }
                JOINT l_shoulder
                {
                  OFFSET 1.23299 -7.60731 7.53374
                  CHANNELS 6 Xposition Yposition Zposition Zrotation Xrotation Yrotation
                  JOINT l_up_arm
                  {
                    OFFSET 12.9547 3.2495 -3.26872
                    CHANNELS 6 Xposition Yposition Zposition Zrotation Xrotation Yrotation
                    JOINT l_low_arm
                    {
                      OFFSET 29.2081 0.0598081 0.137039
                      CHANNELS 6 Xposition Yposition Zposition Zrotation Xrotation Yrotation
                      JOINT l_hand
                      {
                        OFFSET 24.234 0.0496219 0.113701
                        CHANNELS 6 Xposition Yposition Zposition Zrotation Xrotation Yrotation
                        End Site
                        {
                          OFFSET 0.1 0 0
                        }
                      }
                    }
                  }
                }
                JOINT r_shoulder
                {
                  OFFSET -1.23299 -7.60729 7.53365
                  CHANNELS 6 Xposition Yposition Zposition Zrotation Xrotation Yrotation
                  JOINT r_up_arm
                  {
                    OFFSET -12.9547 3.2495 -3.26872
                    CHANNELS 6 Xposition Yposition Zposition Zrotation Xrotation Yrotation
                    JOINT r_low_arm
                    {
                      OFFSET -29.2081 0.0598081 0.137039
                      CHANNELS 6 Xposition Yposition Zposition Zrotation Xrotation Yrotation
                      JOINT r_hand
                      {
                        OFFSET -24.234 0.0496218 0.113702
                        CHANNELS 6 Xposition Yposition Zposition Zrotation Xrotation Yrotation
                        End Site
                        {
                          OFFSET -0.1 0 0
                        }
                      }
                    }
                  }
                }
              }
            }
          }
        }
      }
    }
  }
  JOINT l_up_leg
  {
    OFFSET 9.23673 -4.20556 2.0327
    CHANNELS 6 Xposition Yposition Zposition Zrotation Xrotation Yrotation
    JOINT l_low_leg
    {
      OFFSET -0.852353 -38.7721 -0.655187
      CHANNELS 6 Xposition Yposition Zposition Zrotation Xrotation Yrotation
      JOINT l_foot
      {
        OFFSET -2.32622 -40.4017 -6.04875
        CHANNELS 6 Xposition Yposition Zposition Zrotation Xrotation Yrotation
        JOINT l_toes
        {
          OFFSET 0.779096 -9.8844 12.4959
          CHANNELS 6 Xposition Yposition Zposition Zrotation Xrotation Yrotation
          End Site
          {
            OFFSET 0 0 0.1
          }
        }
      }
    }
  }
  JOINT r_up_leg
  {
    OFFSET -9.23673 -4.20556 2.0327
    CHANNELS 6 Xposition Yposition Zposition Zrotation Xrotation Yrotation
    JOINT r_low_leg
    {
      OFFSET 0.852353 -38.7721 -0.655187
      CHANNELS 6 Xposition Yposition Zposition Zrotation Xrotation Yrotation
      JOINT r_foot
      {
        OFFSET 2.32622 -40.4017 -6.04875
        CHANNELS 6 Xposition Yposition Zposition Zrotation Xrotation Yrotation
        JOINT r_toes
        {
          OFFSET -0.779096 -9.8844 12.4959
          CHANNELS 6 Xposition Yposition Zposition Zrotation Xrotation Yrotation
          End Site
          {
            OFFSET 0 0 0.1
          }
        }
      }
    }
  }
}
MOTION
Frames: 7
Frame Time: 0.016667
0 93.2929 0 -0 0 -0 0 5.07867 -1.15138 -0 0 -0 0 5.61661 1.07143 -0 0 -0 -1.02604e-17 5.98978 0.11501 -0 0 -0 -1.10457e-17 6.50583 -0.443523 -0 0 -0 -1.97295e-17 7.60548 -1.50593 -0 0 -0 -2.53307e-17 9.49737 -0.914492 -0 0 -0 -2.90401e-17 10.5513 1.57691 -0 0 -0 -1.29193e-17 4.78644 0.715339 -0 0 -0 -1.8116e-17 4.82109 0.421791 -0 0 -0 -2.00958e-17 4.83041 0.765062 -0 0 -0 1.23299 -7.60731 7.53374 -0 0 -0 12.9547 3.2495 -3.26872 -0 0 -0 29.2081 0.0598081 0.137039 -0 0 -0 24.234 0.0496219 0.113701 -0 0 -0 -1.23299 -7.60729 7.53365 -0 0 -0 -12.9547 3.2495 -3.26872 -0 0 -0 -29.2081 0.0598081 0.137039 -0 0 -0 -24.234 0.0496218 0.113702 -0 0 -0 9.23673 -4.20556 2.0327 -0 0 -0 -0.852353 -38.7721 -0.655187 -0 0 -0 -2.32622 -40.4017 -6.04875 -0 0 -0 0.779096 -9.8844 12.4959 -0 0 -0 -9.23673 -4.20556 2.0327 -0 0 -0 0.852353 -38.7721 -0.655187 -0 0 -0 2.32622 -40.4017 -6.04875 -0 0 -0 -0.779096 -9.8844 12.4959 -0 0 -0 
7.20942 92.2607 45.113 6.2518 -3.99104 -2.33199 0 5.07867 -1.15138 -2.79055 3.47069 0.371201 0 5.61661 1.07143 -2.18352 2.33427 0.172684 -1.02604e-17 5.98978 0.11501 -1.66587 1.42703 0.254694 -1.10457e-17 6.50583 -0.443523 -1.02188 -0.522089 0.196405 -1.97295e-17 7.60548 -1.50593 -0.342589 -1.40793 0.254637 -2.53307e-17 9.49737 -0.914492 0.333969 -3.33725 -0.0791936 -2.90401e-17 10.5513 1.57691 0.0863962 0.923257 -0.169313 -1.29193e-17 4.78644 0.715339 0.593259 11.4369 0.760871 -1.8116e-17 4.82109 0.421791 -0.00470073 -5.91036 0.104811 -2.00958e-17 4.83041 0.765062 -1.07671 -9.43347 2.1574 1.23299 -7.60731 7.53374 25.3046 3.95098 3.2185 12.9547 3.2495 -3.26872 -100.471 25.6693 5.19783 29.2081 0.0598081 0.137039 4.49114 -0.855647 -22.1558 24.234 0.0496219 0.113701 -3.30547 -31.381 3.11401 -1.23299 -7.60729 7.53365 -20.9855 2.46962 -4.25659 -12.9547 3.2495 -3.26872 97.0266 18.3035 -2.65349 -29.2081 0.0598081 0.137039 -4.57478 -0.889488 22.5883 -24.234 0.0496218 0.113702 7.57097 -31.162 1.87055 9.23673 -4.20556 2.0327 -1.8814 3.37194 -9.64896 -0.852353 -38.7721 -0.655187 -0.492613 1.83958 -0.0242022 -2.32622 -40.4017 -6.04875 -4.48564 -0.966466 15.9045 0.779096 -9.8844 12.4959 -2.80118e-16 -8.10966e-16 2.82511e-17 -9.23673 -4.20556 2.0327 -11.6405 -2.68278 13.6742 0.852353 -38.7721 -0.655187 1.8112 6.75383 0.0111409 2.32622 -40.4017 -6.04875 1.44035 -7.22626 -15.4645 -0.779096 -9.8844 12.4959 -1.98785e-16 -5.8393e-16 -1.27595e-14 
7.15571 92.2295 45.1804 6.24558 -3.9776 -2.48082 0 5.07867 -1.15138 -2.76597 3.59543 0.376606 0 5.61661 1.07143 -2.17592 2.37479 0.186295 -1.02604e-17 5.98978 0.11501 -1.66951 1.3894 0.272498 -1.10457e-17 6.50583 -0.443523 -1.03203 -0.681751 0.2109 -1.97295e-17 7.60548 -1.50593 -0.354083 -1.61955 0.266362 -2.53307e-17 9.49737 -0.914492 0.326348 -3.62065 -0.0555283 -2.90401e-17 10.5513 1.57691 0.0937895 0.941071 -0.172351 -1.29193e-17 4.78644 0.715339 0.62804 11.6074 0.76457 -1.8116e-17 4.82109 0.421791 -0.0263967 -5.78118 0.106857 -2.00958e-17 4.83041 0.765062 -1.0496 -9.27719 2.04737 1.23299 -7.60731 7.53374 25.3724 4.02195 3.00451 12.9547 3.2495 -3.26872 -99.0661 26.0058 5.13353 29.2081 0.0598081 0.137039 4.56787 -0.886737 -22.5538 24.234 0.0496219 0.113701 -4.39576 -31.8664 2.1503 -1.23299 -7.60729 7.53365 -21.7996 2.55192 -4.19811 -12.9547 3.2495 -3.26872 96.6937 18.4228 -2.93979 -29.2081 0.0598081 0.137039 -4.74991 -0.962915 23.5009 -24.234 0.0496218 0.113702 8.4351 -32.2469 2.54394 9.23673 -4.20556 2.0327 -1.84654 3.44113 -9.52279 -0.852353 -38.7721 -0.655187 -0.480318 1.79365 -0.0237903 -2.32622 -40.4017 -6.04875 -4.42903 -1.07608 15.8953 0.779096 -9.8844 12.4959 7.27384e-16 -7.66888e-16 -1.58271e-17 -9.23673 -4.20556 2.0327 -11.6188 -2.65898 13.7729 0.852353 -38.7721 -0.655187 1.78565 6.65906 0.0124707 2.32622 -40.4017 -6.04875 1.43056 -7.35845 -15.4684 -0.779096 -9.8844 12.4959 -2.96819e-16 -5.77803e-16 -1.27564e-14 
7.11506 92.2011 45.2378 6.23579 -3.91607 -2.63122 0 5.07867 -1.15138 -2.72346 3.50241 0.33577 0 5.61661 1.07143 -2.14274 2.29864 0.146456 -1.02604e-17 5.98978 0.11501 -1.64842 1.32693 0.22741 -1.10457e-17 6.50583 -0.443523 -1.02255 -0.708301 0.163448 -1.97295e-17 7.60548 -1.50593 -0.364017 -1.61166 0.214849 -2.53307e-17 9.49737 -0.914492 0.293951 -3.59726 -0.0908678 -2.90401e-17 10.5513 1.57691 0.0908481 0.934371 -0.180746 -1.29193e-17 4.78644 0.715339 0.633283 11.7111 0.788089 -1.8116e-17 4.82109 0.421791 -0.157221 -5.78934 0.113468 -2.00958e-17 4.83041 0.765062 -0.903523 -9.22338 2.28675 1.23299 -7.60731 7.53374 24.993 3.93734 2.82714 12.9547 3.2495 -3.26872 -98.0907 26.4675 4.90664 29.2081 0.0598081 0.137039 4.74376 -0.960356 -23.47 24.234 0.0496219 0.113701 -4.05959 -32.4973 2.15846 -1.23299 -7.60729 7.53365 -22.1672 2.46802 -4.09368 -12.9547 3.2495 -3.26872 96.8508 18.4472 -3.00139 -29.2081 0.0598081 0.137039 -4.99866 -1.07291 24.8074 -24.234 0.0496218 0.113702 8.13649 -32.6122 2.5647 9.23673 -4.20556 2.0327 -1.81324 3.46815 -9.35309 -0.852353 -38.7721 -0.655187 -0.45774 1.7093 -0.0230082 -2.32622 -40.4017 -6.04875 -4.39229 -1.19023 15.8917 0.779096 -9.8844 12.4959 -5.74222e-16 -8.2322e-16 4.05054e-17 -9.23673 -4.20556 2.0327 -11.5961 -2.711 13.8938 0.852353 -38.7721 -0.655187 1.76538 6.58384 0.0134958 2.32622 -40.4017 -6.04875 1.43998 -7.46397 -15.4676 -0.779096 -9.8844 12.4959 -4.9832e-16 -5.65209e-16 -1.27501e-14 
7.08325 92.1842 45.2898 6.20769 -3.83154 -2.79704 0 5.07867 -1.15138 -2.69948 3.47958 0.341585 0 5.61661 1.07143 -2.13416 2.25394 0.162998 -1.02604e-17 5.98978 0.11501 -1.6479 1.26593 0.246818 -1.10457e-17 6.50583 -0.443523 -1.02847 -0.789365 0.183306 -1.97295e-17 7.60548 -1.50593 -0.369678 -1.68167 0.233899 -2.53307e-17 9.49737 -0.914492 0.293262 -3.68169 -0.0626592 -2.90401e-17 10.5513 1.57691 0.0971463 0.939455 -0.176542 -1.29193e-17 4.78644 0.715339 0.640952 11.7367 0.7331 -1.8116e-17 4.82109 0.421791 -0.164339 -5.6497 0.0864014 -2.00958e-17 4.83041 0.765062 -0.841611 -9.09291 2.28945 1.23299 -7.60731 7.53374 25.0026 3.9175 2.67992 12.9547 3.2495 -3.26872 -96.828 26.877 4.53855 29.2081 0.0598081 0.137039 4.93676 -1.04498 -24.4824 24.234 0.0496219 0.113701 -4.40669 -32.715 1.90785 -1.23299 -7.60729 7.53365 -22.5245 2.45721 -3.95548 -12.9547 3.2495 -3.26872 96.3107 18.4277 -3.01003 -29.2081 0.0598081 0.137039 -5.28069 -1.20597 26.3049 -24.234 0.0496218 0.113702 8.3609 -33.425 2.6393 9.23673 -4.20556 2.0327 -1.76544 3.45657 -9.2584 -0.852353 -38.7721 -0.655187 -0.438541 1.63758 -0.0223171 -2.32622 -40.4017 -6.04875 -4.42701 -1.26923 15.892 0.779096 -9.8844 12.4959 2.48481e-17 -7.95139e-16 1.2424e-17 -9.23673 -4.20556 2.0327 -11.5707 -2.82579 13.9681 0.852353 -38.7721 -0.655187 1.75638 6.55046 0.013942 2.32622 -40.4017 -6.04875 1.49668 -7.53248 -15.4688 -0.779096 -9.8844 12.4959 -2.96819e-16 -5.77803e-16 -1.27564e-14 
7.06326 92.1814 45.3433 6.16118 -3.75972 -2.96668 0 5.07867 -1.15138 -2.63994 3.86141 0.351946 0 5.61661 1.07143 -2.11197 2.42879 0.203491 -1.02604e-17 5.98978 0.11501 -1.65593 1.23977 0.295095 -1.10457e-17 6.50583 -0.443523 -1.05002 -1.10887 0.222236 -1.97295e-17 7.60548 -1.50593 -0.396865 -2.13173 0.265878 -2.53307e-17 9.49737 -0.914492 0.271988 -4.33427 -0.003696 -2.90401e-17 10.5513 1.57691 0.117467 0.968175 -0.182139 -1.29193e-17 4.78644 0.715339 0.709941 12.0234 0.694285 -1.8116e-17 4.82109 0.421791 -0.189908 -5.33383 0.0657491 -2.00958e-17 4.83041 0.765062 -0.834966 -8.82485 2.11415 1.23299 -7.60731 7.53374 26.2126 4.18574 2.14524 12.9547 3.2495 -3.26872 -94.1828 28.5757 4.54039 29.2081 0.0598081 0.137039 5.13739 -1.13731 -25.5432 24.234 0.0496219 0.113701 -7.37587 -34.8282 -0.179275 -1.23299 -7.60729 7.53365 -24.8939 2.70584 -3.76203 -12.9547 3.2495 -3.26872 95.4348 19.8113 -3.73262 -29.2081 0.0598081 0.137039 -5.64309 -1.39047 28.2568 -24.234 0.0496218 0.113702 10.8262 -36.2845 3.90864 9.23673 -4.20556 2.0327 -1.70776 3.37741 -9.20425 -0.852353 -38.7721 -0.655187 -0.457838 1.70967 -0.0230117 -2.32622 -40.4017 -6.04875 -4.31721 -1.29992 15.8773 0.779096 -9.8844 12.4959 -1.71221e-16 -8.04329e-16 2.16148e-17 -9.23673 -4.20556 2.0327 -11.55 -2.95279 13.9269 0.852353 -38.7721 -0.655187 1.75793 6.5562 0.0138656 2.32622 -40.4017 -6.04875 1.78961 -7.60472 -15.4808 -0.779096 -9.8844 12.4959 -2.04216e-16 -5.77463e-16 -1.27624e-14 
7.05559 92.188 45.4041 6.12309 -3.70181 -3.1362 0 5.07867 -1.15138 -2.56893 3.5134 0.269411 0 5.61661 1.07143 -2.04545 2.22384 0.118095 -1.02604e-17 5.98978 0.11501 -1.60608 1.16912 0.195882 -1.10457e-17 6.50583 -0.443523 -1.01897 -0.927843 0.120083 -1.97295e-17 7.60548 -1.50593 -0.40531 -1.81175 0.158156 -2.53307e-17 9.49737 -0.914492 0.214427 -3.88189 -0.0885308 -2.90401e-17 10.5513 1.57691 0.105086 0.918072 -0.194106 -1.29193e-17 4.78644 0.715339 0.675293 11.9636 0.657081 -1.8116e-17 4.82109 0.421791 -0.439972 -5.53387 0.0370237 -2.00958e-17 4.83041 0.765062 -0.530378 -8.79975 2.85792 1.23299 -7.60731 7.53374 25.5209 3.96545 1.80973 12.9547 3.2495 -3.26872 -93.131 30.1285 3.95195 29.2081 0.0598081 0.137039 5.49674 -1.31416 -27.466 24.234 0.0496219 0.113701 -5.2475 -36.9294 1.00199 -1.23299 -7.60729 7.53365 -24.7999 2.42923 -3.44497 -12.9547 3.2495 -3.26872 95.4603 20.4371 -3.50038 -29.2081 0.0598081 0.137039 -6.00389 -1.58999 30.2346 -24.234 0.0496218 0.113702 9.53516 -36.852 3.72395 9.23673 -4.20556 2.0327 -1.66016 3.38146 -9.00024 -0.852353 -38.7721 -0.655187 -0.437903 1.6352 -0.0222937 -2.32622 -40.4017 -6.04875 -4.35002 -1.31623 15.8903 0.779096 -9.8844 12.4959 -5.74222e-16 -8.2322e-16 4.05054e-17 -9.23673 -4.20556 2.0327 -11.5129 -3.0554 14.176 0.852353 -38.7721 -0.655187 1.74955 6.52512 0.0142773 2.32622 -40.4017 -6.04875 1.93945 -7.55801 -15.4769 -0.779096 -9.8844 12.4959 5.03751e-16 -6.12181e-16 -1.27877e-14 
